<?xml version="1.0" encoding="utf-8"?>
<!-- Generator: Adobe Illustrator 19.0.0, SVG Export Plug-In . SVG Version: 6.00 Build 0)  -->
<svg version="1.1" id="Capa_1" xmlns="http://www.w3.org/2000/svg" xmlns:xlink="http://www.w3.org/1999/xlink" x="0px" y="0px"
	 viewBox="-491 253 96 96" style="enable-background:new -491 253 96 96;" xml:space="preserve">
<style type="text/css">
	.st0{fill:#FFFFFF;}
</style>
<path class="st0" d="M-445,261c-13.2,0-24,14.5-24,32.4c0,9.7,3.2,18.3,8.2,24.3c-0.1,0.4-0.2,0.9-0.2,1.3c0,3.3,2.7,6,6,6
	s6-2.7,6-6s-2.7-6-6-6c-0.6,0-1.2,0.1-1.8,0.3c-3.8-4.8-6.2-12-6.2-19.9c0-14.6,8.1-26.4,18-26.4c7.7,0,14.2,7.1,16.8,17
	c2.2,0.7,4.5,1.6,6.7,2.6C-423.8,272-433.5,261-445,261z"/>
<path class="st0" d="M-420,293.2c-7.9-4.8-16.7-6.9-24.4-5.9c-1.1-1.4-2.8-2.3-4.6-2.3c-3.3,0-6,2.7-6,6s2.7,6,6,6
	c2.5,0,4.7-1.6,5.6-3.8c6.2-0.8,13.6,1.1,20.3,5.1c12.8,7.8,19.3,21.1,14.6,29.8c-1.7,3-4.6,5.1-8.4,6.2c-4.6,1.2-10,0.8-15.5-1.1
	c-1.7,1.5-3.5,3-5.5,4.3c5.1,2.2,10.4,3.4,15.3,3.4c2.5,0,4.9-0.3,7.1-0.9c5.5-1.5,9.7-4.6,12.1-9.1
	C-397,319.6-404.5,302.6-420,293.2z"/>
<path class="st0" d="M-421,311c0-3.3-2.7-6-6-6s-6,2.7-6,6c0,1.3,0.5,2.6,1.2,3.6c-2.6,5.6-7.5,11.1-14.1,15.2
	c-7.7,4.7-16.4,6.4-23.1,4.6c-3.9-1-6.8-3.2-8.4-6.2c-3.4-6.2-1-14.8,5.2-22c-0.6-2.3-1.1-4.7-1.4-7.1c-10.1,9.6-14.2,22.6-9.1,32
	c2.5,4.5,6.7,7.6,12.1,9.1c2.2,0.6,4.6,0.9,7.1,0.9c6.7,0,14-2.1,20.7-6.2c7.7-4.6,13.4-11.2,16.4-17.9
	C-423.4,316.6-421,314.1-421,311z"/>
</svg>
