<?xml version="1.0" encoding="utf-8"?>
<!-- Generator: Adobe Illustrator 19.0.0, SVG Export Plug-In . SVG Version: 6.00 Build 0)  -->
<svg version="1.1" id="Capa_1" xmlns="http://www.w3.org/2000/svg" xmlns:xlink="http://www.w3.org/1999/xlink" x="0px" y="0px"
	 viewBox="-489 251 100 100" style="enable-background:new -489 251 100 100;" xml:space="preserve">
<style type="text/css">
	.st0{fill:#FFFFFF;}
</style>
<path class="st0" d="M-443.3,262.6c-4.5,0-9.2,0.8-13.6,2.4c-5.3,1.9-15.4,6.1-23,13.2c-7.7,7.2-9.6,14.2-8.8,18.3
	c1.5,7.7,8.9,12.9,14.5,16.8c-4.1,2.5-8.5,6-10.3,9.9c-1.7,3.7-1.8,7.5-0.3,10.8c1.1,2.4,3.1,4.2,5.2,4.8c1.5,0.4,3,0.6,4.5,0.6
	c6,0,11.8-3.3,15.3-8.5c0.5-0.8,1-1.6,1.4-2.4c0.2,0.3,0.4,0.5,0.7,0.7c1.9,1.8,4.2,1.8,4.9,1.8c2.3,0,3.9-1,5.1-2.2
	c1,0.7,2.1,1,3.4,1c0.1,0,0.3,0,0.5,0c2.5-0.3,5.2-2.7,5.2-2.7c0.1,0.1,0.2,0.2,0.3,0.3c1.1,0.8,2.4,1.2,4.1,1.2c0.3,0,0.6,0,0.9,0
	c2-0.1,3.6-0.6,4.6-1c1-0.4,2.4-1,3.8-2c0.3-0.3,0.7-0.5,1-0.8c0.6,0.4,1.3,0.7,2.1,0.8c0.4,0.1,0.8,0.1,1.2,0.1
	c1.1,0,2.2-0.3,3.5-0.8c1-0.4,2.6-1,4.1-2.1c3.5-2.6,5.2-5.6,5-9c0-0.1,0-0.2,0-0.3c0.5-0.1,1-0.1,1.6-0.1c0.7,0,1.4,0,2.1,0.1
	c4.8,0.6,5.8,2.8,5.8,3.6c0,0.2-0.4,0.5-0.7,0.7c-2,1.2-2.9,2.9-2.5,4.8c0.4,2.1,2.2,3.6,4.3,3.6c0.4,0,0.8-0.1,1.1-0.1
	c2.6-0.4,7.4-3.6,7.7-9.3c0.1-3.3-1.2-6.7-3.7-9.3c-3.1-3.3-7.7-5.1-12.9-5.1h-0.1c-2.2,0-4.2,0.3-6.3,0.9l-0.1-0.5
	c-0.1-0.9-0.2-1.2-0.1-1.9c0.1-0.7,0.5-1.9,0.7-2.5c0.3-0.8,0.5-1.4,0.4-2.3c-0.1-1.7-1.6-4.6-6-4.6h0h-0.1c-3.9,0-6.4,1.1-7.2,3.4
	c-0.1,0.3-0.2,0.7-0.4,1.1c-0.9-1-2.4-1.7-4.7-1.7h0h-0.1c-0.5,0-0.9,0-1.3,0.1c5.7-5.3,9.3-12.8,7.5-20.1
	C-425.4,267-432.9,262.6-443.3,262.6z M-443.3,266.6c8,0,14.5,3,15.9,8.4c2,8-4.9,17.5-13.7,20.9c-4.6,1.8-8.7,2.4-11.9,2.4
	c-2.3,0-4.1-0.3-5.2-0.7c-3-1-4.8-3-5.3-4.1c-0.2-0.4-0.5-1.2,0-1.4c0.1,0,0.1-0.1,0.2-0.1c0.2,0,0.4,0.2,0.9,0.8
	c0.6,0.7,3,2.4,7.3,2.4c0.6,0,1.3,0,1.9-0.1c14.6-1.6,23.4-13,20.6-19.1c-1-2.2-4.6-3.8-9.8-3.8c-4.7,0-10.8,1.3-17.4,4.6
	c-17.2,8.5-18.1,15.6-18.2,18.3c-0.4,7.4,9.1,11.2,14.2,16.7c0.1,0.1,0.1,0.1,0.2,0.2c1-0.5,2-1.1,3-1.6c2.6-1.4,5-2.8,6.2-3.4
	c1.8-2.6,5.5-5.5,8.1-5.5c4.2,0,2.8,6.1,2.8,6.1s0.1-0.3,0.2-0.3c0.1,0,0.4-0.5,1.1-0.5c0.2,0,0.5,0,0.8,0.2c1.3,0.5,1,1.4,1,1.5
	c0,0.2-1.6,5.6-2.3,9.1c-0.3,1.7-0.1,2.9,0,2.9c0.1,0,0.4-0.4,0.6-0.9l0,0c0,0,0.2-0.3,0.5-1c0-0.1,0.1-0.1,0.1-0.1l0,0
	c0.4-0.7,0.9-1.8,1.5-3.1c1.2-2.6,5.7-12.6,6-13.7s0.6-2.3,0.8-2.7c0.2-0.5,1.7-0.8,3.5-0.8h0.1c1.9,0,2,0.8,2.1,1s-0.9,2.4-1.1,3.9
	s0,2.3,0.2,3.6c0.1,0.9,0.6,1.9,1.3,3.2c1.9-3.1,5.3-9.1,5.6-10.8c0.2-1.1,0.6-2.2,0.8-2.7c0.2-0.5,1.7-0.8,3.5-0.8h0.1
	c1.9,0,2,0.8,2.1,1s-0.9,2.4-1.1,3.9s0,2.3,0.2,3.6c0.1,1.1,1,2.6,1.9,4.3c2.3-1.1,5.1-1.9,8.3-1.9h0.1c8.2,0,12.9,5.3,12.7,10.2
	c-0.1,3.8-3.7,5.4-4.3,5.5c-0.2,0-0.3,0-0.4,0c-0.2,0-0.3-0.1-0.4-0.3c0-0.3,0.1-0.4,0.7-0.7s2.2-1.5,2.5-3.6c0.3-2.1-1.3-7.1-9.3-8
	c-0.9-0.1-1.8-0.2-2.6-0.2c-2.5,0-4.6,0.5-6.3,1.2c0.4,1.1,0.7,2.2,0.8,3.4c0.1,2.5-1.6,4.4-3.4,5.7c-1,0.8-2.2,1.3-3.1,1.6
	c-0.6,0.3-1.4,0.5-2.1,0.5c-0.1,0-0.3,0-0.4,0c-1.6-0.3-2.4-1.7-1.3-4.7c0.6-1.6,2.2-4.2,4.9-6.3c-0.6-1.3-1.3-2.5-1.6-3.7
	c-0.7-2.3-0.9-3.7-0.9-3.7s-2.2,4.5-5,8.7c-0.2,0.2-0.3,0.5-0.5,0.7c0.6,1.3,1,2.7,1.1,4c0.1,2.5-1,4.4-2.8,5.7
	c-1,0.7-2,1.2-2.9,1.5c-0.6,0.2-1.7,0.7-3.4,0.8c-0.2,0-0.4,0-0.6,0c-0.7,0-1.3-0.1-1.7-0.4c-0.7-0.5-0.7-1.1-0.4-2
	c0.3-0.7,2.5-3.2,4.3-5.4c0.5-0.6,1-1.2,1.4-1.8c0,0,0,0,0,0s0.3-0.4,0.9-1.2c-0.7-1.4-1.5-2.9-1.9-4.3c-0.7-2.3-0.9-3.7-0.9-3.7
	s-2.2,5.7-4.5,10.3c-1.8,3.5-3,5.7-3.5,6.6c0,0,0,0,0,0s-0.1,0.1-0.2,0.4c-0.1,0.1-0.1,0.2-0.1,0.2s0,0,0,0c-0.6,0.9-2,2.6-3.3,2.6
	c-3.7,0-2.3-7.5-2.3-7.5s-1.1,2.8-2.3,5.2c-1,1.9-1.9,3.6-3.9,3.6c-0.6,0-1.5,0-2.2-0.7c-1.7-1.6-3-5.7-2.7-8.9
	c0.2-2.7,0.6-4.6,1.2-6.1c-1,0.6-2.2,1.2-3.4,1.9c-0.6,0.4-1.2,0.7-1.8,1.1c0,0,0,0.1,0.1,0.1c1.5,2.9,1.9,9.3-1.4,14.3
	c-2.7,4-7.2,6.7-12,6.7c-1.1,0-2.3-0.1-3.4-0.5c-1.9-0.5-4.9-4.5-2.3-10.1c2.2-4.9,11.1-9.6,13.4-10.7c0.2-0.1,0.4-0.2,0.6-0.4
	c-4.7-4.1-16.3-9.6-17.9-18c-0.5-2.4,0.7-8.1,7.6-14.6c5.9-5.5,14.1-9.7,21.6-12.4C-451.4,267.3-447.2,266.6-443.3,266.6z
	 M-442.3,276.1c4.3,0,6,1.2,6.2,1.5c0.3,0.6,0.2,2-0.9,3.9c-2.3,4.1-8.3,8.6-16.6,9.5c-0.5,0.1-1,0.1-1.5,0.1
	c-3.1,0-4.4-1.2-4.4-1.2c-0.7-0.8-1.9-2.1-3.8-2.1c-0.7,0-1.5,0.2-2.1,0.6c-0.6,0.3-3.4,2.1-1.8,6.3c0.9,2.3,3.6,5.2,7.8,6.5
	c1.1,0.4,2.5,0.6,4,0.8c-0.6,0.6-1.1,1.2-1.6,1.8c-1.3,0.7-3.3,1.8-5.4,3l-0.4,0.2c-1.3-1.1-2.7-2.2-4-3.2c-4.4-3.4-7.2-5.8-7.1-8.6
	c0.3-5.9,8.9-11.4,16-14.9C-452.5,277.6-447,276.1-442.3,276.1z M-437.2,298.5c0,0.1-0.1,0.3-0.1,0.4c-0.1,0.5-0.2,1-0.4,1.4
	c-0.1,0.4-0.7,1.6-1.4,3.3c-0.1-0.1-0.2-0.1-0.3-0.2c-0.2-1.2-0.6-2.4-1.4-3.4c0.4-0.1,0.8-0.3,1.2-0.4
	C-438.9,299.3-438,298.9-437.2,298.5z M-446.4,305c-0.7,0-1.8,0.6-2.8,1.8c-0.9,1-2.4,3.6-3.1,5.8c-1.4,4.3-0.8,8.7,0.2,8.9
	c0,0,0.1,0,0.1,0c1.2,0,3-5.5,3.9-7.7c0.6-1.4,2.8-7.7,2.3-8.5C-445.9,305.1-446.1,305-446.4,305z M-416.5,312.1
	c-1.5,1.3-2.4,2.7-2.7,3.5c-1,2.1-1,2.8-0.7,3c1.4-0.5,3.7-1.7,3.7-4.9C-416.3,313.2-416.4,312.7-416.5,312.1z M-464.7,315.7
	c-0.1,0.1-0.3,0.2-0.4,0.2v0c0,0-0.1,0-0.2,0.1c-0.7,0.4-1.3,0.8-1.6,1c-1.7,1.1-4.2,2.8-6.2,4.6c-3.2,3.1-3.9,7.3-2.2,8.3
	c0.4,0.2,0.8,0.3,1.4,0.3c1.8,0,4.5-1.2,6.5-3.4C-464.7,323.9-463.5,320-464.7,315.7z M-428.7,316.2c-0.6,0.8-1.1,1.4-1.6,2
	c-0.8,1-2.8,3.1-2.8,3.1s-0.3,0.3-0.2,0.3c0,0,0.1,0,0.1,0c0.2,0,0.5-0.1,0.8-0.3c1.1-0.7,3.6-2.4,3.6-5
	C-428.7,316.3-428.7,316.3-428.7,316.2z"/>
</svg>
